<svg xmlns="http://www.w3.org/2000/svg" viewBox="0 0 1084 1924"><defs><style>.cls-1,.cls-2,.cls-3{stroke:#d1a970;stroke-miterlimit:10;stroke-width:4px;}.cls-2{fill:none;}.cls-3{fill:#d1a970;}.cls-4,.cls-9{font-size:84.97px;font-family:ChakraPetch-Light, Chakra Petch;font-weight:300;}.cls-4{fill:#ccc;}.cls-5{letter-spacing:-0.02em;}.cls-6{letter-spacing:-0.01em;}.cls-7{letter-spacing:-0.01em;}.cls-8{letter-spacing:0em;}.cls-9{fill:#fff;}</style></defs><title>H-Scope</title><g id="Layer_4" data-name="Layer 4"><rect class="cls-1" x="2" y="2" width="1080" height="1920"/></g><g id="Layer_2" data-name="Layer 2"><polygon class="cls-2" points="503.54 960.84 503.54 960.85 503.32 960.81 503.41 960.66 503.47 960.55 503.54 960.84"/><path class="cls-2" d="M551.5,863.5l-50-59.37,8,75.37-71-20,53,52,.44-.64c-.28,1.24-.52,2.49-.71,3.76l-.73-3.12-67.17,33.71,78,13.6-33.51,59.6,62.37-36.29,1.39-.81a58,58,0,0,0,7.07,1.92l-7.14.27,19,69a128.5,128.5,0,0,1-84.25-31.31l-1.29-1.12A129,129,0,0,1,590,800.69h0Z" transform="translate(2 2)"/><path class="cls-2" d="M632.34,1023.22a128.45,128.45,0,0,1-81.84,29.28l17.26-70.35a59.86,59.86,0,0,0,8-2.94h0Z" transform="translate(2 2)"/><path class="cls-2" d="M659.85,855,590,877.78a57.39,57.39,0,0,0-4.56-3.5L590,800.69A129.33,129.33,0,0,1,659.85,855Z" transform="translate(2 2)"/><polygon class="cls-2" points="592.03 802.69 592.03 802.69 592.03 802.68 592.03 802.69"/><path class="cls-2" d="M676.88,949.5a129,129,0,0,1-44.54,73.72L600.7,958.5a59.37,59.37,0,0,0,5.18-9Z" transform="translate(2 2)"/><path class="cls-2" d="M679.5,923.5a129.54,129.54,0,0,1-2.62,26L610.5,913c-.29-1.59-.64-3.16-1.06-4.7L659.85,855A128.4,128.4,0,0,1,679.5,923.5Z" transform="translate(2 2)"/><circle class="cls-3" cx="553" cy="602" r="60.5"/><circle class="cls-2" cx="778" cy="702" r="60.5"/><circle class="cls-2" cx="871" cy="925" r="60.5"/><circle class="cls-2" cx="778" cy="1148" r="60.5"/><circle class="cls-2" cx="552" cy="1249" r="60.5"/><circle class="cls-3" cx="327" cy="1154" r="60.5"/><circle class="cls-3" cx="231" cy="925" r="60.5"/><circle class="cls-3" cx="327" cy="702" r="60.5"/><polygon class="cls-2" points="503.54 960.84 503.54 960.85 503.32 960.81 503.41 960.66 503.47 960.55 503.54 960.84"/><path class="cls-2" d="M871.79,862.57a311.4,311.4,0,0,0-51.93-120.9,325,325,0,0,0-87.24-83.83,331,331,0,0,0-121.83-48.55,340.59,340.59,0,0,0-119.63-.35A330.93,330.93,0,0,0,368,657.44a324.75,324.75,0,0,0-87.42,83.62A310.8,310.8,0,0,0,284,1107.57a325.29,325.29,0,0,0,88.57,81.88A331.06,331.06,0,0,0,490.7,1235a340.08,340.08,0,0,0,118.6,0,330.75,330.75,0,0,0,122.14-48A324.86,324.86,0,0,0,819,1103.48a311.16,311.16,0,0,0,52.76-240.91ZM605.88,949.5a59.37,59.37,0,0,1-5.18,9l31.64,64.72-56.56-44h0a59.86,59.86,0,0,1-8,2.94L550.5,1052.5l-19-69,7.14-.27a58,58,0,0,1-7.07-1.92l-1.39.81-62.37,36.29,33.51-59.6-78-13.6L490.5,911.5l.73,3.12c.19-1.27.43-2.52.71-3.76l-.44.64-53-52,71,20-8-75.37,50,59.37L590,800.69l-4.56,73.59a57.39,57.39,0,0,1,4.56,3.5L659.85,855,609.44,908.3c.42,1.54.77,3.11,1.06,4.7l66.38,36.5Z" transform="translate(2 2)"/><path class="cls-2" d="M501.54,958.84l-.13-.18.06-.11Z" transform="translate(2 2)"/><path class="cls-2" d="M491.94,910.86" transform="translate(2 2)"/><path class="cls-2" d="M512.87,880.23" transform="translate(2 2)"/><polygon class="cls-2" points="503.54 960.84 503.54 960.85 503.32 960.81 503.41 960.66 503.47 960.55 503.54 960.84"/><polyline class="cls-2" points="464.5 1023.5 466.96 1022.07 469.81 1020.41 468.25 1023.19"/><path class="cls-2" d="M590.5,881.5" transform="translate(2 2)"/><path class="cls-2" d="M609.44,908.3" transform="translate(2 2)"/><path class="cls-2" d="M600.7,958.5l31.64,64.72-56.56-44h0a59.86,59.86,0,0,1-8,2.94L550.5,1052.5l-19-69,7.14-.27a58,58,0,0,1-7.07-1.92l-1.39.81-62.37,36.29,33.51-59.6.22,0h0l-.07-.29-.06.11-.09.15-78-13.6L490.5,911.5l.73,3.12c.19-1.27.43-2.52.71-3.76l-.44.64-53-52,71,20-8-75.37,50,59.37L590,800.69l-4.56,73.59a57.39,57.39,0,0,1,4.56,3.5L659.85,855,609.44,908.3c.42,1.54.77,3.11,1.06,4.7l66.38,36.5h-71A59.37,59.37,0,0,1,600.7,958.5Z" transform="translate(2 2)"/><polygon class="cls-2" points="592.03 802.69 553.5 865.5 592.02 802.69 592.03 802.69"/><path class="cls-2" d="M609,914.28a56.77,56.77,0,0,0-9.48-22.06,59.25,59.25,0,0,0-15.91-15.29,60.47,60.47,0,0,0-22.23-8.86,62.24,62.24,0,0,0-11.09-1,61.09,61.09,0,0,0-10.73.94,60.19,60.19,0,0,0-22.47,8.85,59,59,0,0,0-15.95,15.25,56.52,56.52,0,0,0-10.6,33,56.11,56.11,0,0,0,1.12,11.22A56.89,56.89,0,0,0,501.71,959a59.39,59.39,0,0,0,16.16,14.94,60.4,60.4,0,0,0,21.56,8.3,62.09,62.09,0,0,0,21.64,0,60.22,60.22,0,0,0,22.28-8.77,59.11,59.11,0,0,0,16-15.22,56.78,56.78,0,0,0,9.63-44Z" transform="translate(2 2)"/></g><g id="Layer_3" data-name="Layer 3"><path class="cls-1" d="M311.2,1209.73a60,60,0,1,0,0-117.46,60,60,0,0,1,0,117.46Z" transform="translate(2 2)"/><path class="cls-3" d="M770.19,754.77a58.35,58.35,0,1,0,0-114.24,58.36,58.36,0,0,1,0,114.24Z" transform="translate(2 2)"/><path class="cls-1" d="M333,754.81a56.44,56.44,0,1,1,0-110.49,56.44,56.44,0,0,0,0,110.49Z" transform="translate(2 2)"/><path class="cls-3" d="M783.8,1200.7a55.44,55.44,0,1,1,0-108.53,55.44,55.44,0,0,0,0,108.53Z" transform="translate(2 2)"/><path class="cls-3" d="M550,1186v121c-41.11-5.59-66.18-43.28-59-75C496.48,1207.8,520.48,1188.25,550,1186Z" transform="translate(2 2)"/><path class="cls-1" d="M551,541V662c-41.11-5.59-66.18-43.28-59-75C497.48,562.8,521.48,543.25,551,541Z" transform="translate(2 2)"/><line class="cls-2" x1="380" y1="754" x2="399" y2="772"/><line class="cls-2" x1="411" y1="783" x2="442" y2="813"/><line class="cls-2" x1="552" y1="677" x2="552" y2="723"/><line class="cls-2" x1="552" y1="744" x2="552" y2="775"/><line class="cls-2" x1="725" y1="753" x2="698" y2="779"/><line class="cls-2" x1="686" y1="790" x2="652" y2="820"/><line class="cls-2" x1="699" y1="927" x2="746" y2="925"/><line class="cls-2" x1="769" y1="927" x2="799" y2="926"/><line class="cls-2" x1="307" y1="929" x2="354" y2="925"/><line class="cls-2" x1="376" y1="929" x2="410" y2="927"/><line class="cls-2" x1="434" y1="1015" x2="399" y2="1054"/><line class="cls-2" x1="390" y1="1070" x2="365" y2="1097"/><line class="cls-2" x1="552" y1="1072" x2="553" y2="1127"/><line class="cls-2" x1="553" y1="1145" x2="553" y2="1173"/><line class="cls-2" x1="662" y1="1011" x2="698" y2="1050"/><line class="cls-2" x1="711" y1="1063" x2="729" y2="1087"/></g><g id="Layer_5" data-name="Layer 5"><text class="cls-4" transform="translate(209.74 1655.68)">C<tspan class="cls-5" x="52.93" y="0">r</tspan><tspan x="82.84" y="0">e</tspan><tspan class="cls-6" x="129.83" y="0">a</tspan><tspan class="cls-7" x="175.12" y="0">t</tspan><tspan class="cls-8" x="206.3" y="0">ed By QiMind</tspan></text><text class="cls-9" transform="translate(205.74 1652.68)">C<tspan class="cls-5" x="52.93" y="0">r</tspan><tspan x="82.84" y="0">e</tspan><tspan class="cls-6" x="129.83" y="0">a</tspan><tspan class="cls-7" x="175.12" y="0">t</tspan><tspan class="cls-8" x="206.3" y="0">ed By QiMind</tspan></text></g></svg>